<svg width="53" height="54" viewBox="0 0 53 54" fill="none" xmlns="http://www.w3.org/2000/svg">
<path fill-rule="evenodd" clip-rule="evenodd" d="M49.7501 46.5004C51.5452 46.5004 53.0005 45.0462 53.0005 43.2487C53.0005 42.7273 52.8766 42.2346 52.6574 41.7951L46.4999 29.4813V20.4981C46.4999 9.72652 37.7688 0.996624 26.9983 0.996624C16.2279 0.996624 7.49677 9.72652 7.49677 20.4981V29.4813L1.33934 41.7951C1.12038 42.2346 0.99612 42.7273 0.99612 43.2487C0.99612 45.0462 2.45117 46.5004 4.24664 46.5004H20.498C20.498 50.0899 23.4081 53.0012 26.9983 53.0012C30.5886 53.0012 33.4986 50.0899 33.4986 46.5004H49.7501ZM13.5312 31.8137H13.5179L8.70295 40.4812H45.2968L40.4818 31.8137H40.4686V21.2184H40.4354C40.4574 20.9034 40.4686 20.5855 40.4686 20.2649C40.4686 12.8178 34.4384 6.78025 26.9999 6.78025C19.5613 6.78025 13.5312 12.8178 13.5312 20.2649C13.5312 20.5855 13.5424 20.9034 13.5644 21.2184H13.5312V31.8137Z" fill="#AAAAAA"/>
</svg>
