<svg width="88" height="80" viewBox="0 0 88 80" fill="none" xmlns="http://www.w3.org/2000/svg">
<path fill-rule="evenodd" clip-rule="evenodd" d="M47.4064 0.000154018H10.0001C4.4772 0.000154018 -9.29832e-05 4.47768 -9.29832e-05 9.99997V28.1874C-9.29832e-05 28.7707 0.049844 29.3424 0.145676 29.8983L-9.29832e-05 29.8625V45.6091V45.6232L-6.33001e-05 45.6232C0.00765038 47.4553 1.51583 48.9379 3.37492 48.9379C4.54427 48.9379 5.57462 48.3515 6.18022 47.4606L16.522 38.1872H47.4064C52.9292 38.1872 57.4063 33.7108 57.4063 28.1874V9.99997C57.4063 4.47768 52.9292 0.000154018 47.4064 0.000154018ZM30.5937 59.2192V46.1251H38.25V58.125C38.25 60.3344 40.0408 62.1257 42.25 62.1257H74.9588L74.4961 62.5805L81.248 69.2166V58.8439C81.2903 58.6107 81.3124 58.3704 81.3124 58.125V42.5943C81.3124 40.3843 79.5216 38.5935 77.3123 38.5935H65.0314V31.0621H77.9999C83.5228 31.0621 87.9998 35.5396 87.9998 41.0618V59.2192C87.9998 59.8124 87.9482 60.3935 87.8491 60.9583L87.9998 60.9213V76.682V76.6875C87.9998 78.5163 86.489 79.9998 84.6252 79.9998C83.4432 79.9998 82.4033 79.4035 81.8004 78.5008L71.4482 69.2191H40.5937C35.0708 69.2191 30.5937 64.7415 30.5937 59.2192ZM6.75174 27.7789V38.1578L13.5037 31.5217L13.036 31.0621H45.75C47.9592 31.0621 49.75 29.2713 49.75 27.0619V11.5307C49.75 9.32249 47.9592 7.53169 45.75 7.53169H10.6874C8.47847 7.53169 6.68768 9.32249 6.68768 11.5307V27.0619C6.68768 27.3066 6.70966 27.5463 6.75174 27.7789Z" fill="#666666"/>
</svg>
