<svg width="66" height="49" viewBox="0 0 66 49" fill="none" xmlns="http://www.w3.org/2000/svg">
<g filter="url(#filter0_d)">
<path fill-rule="evenodd" clip-rule="evenodd" d="M48.9999 0.000488281H6.99974C5.34304 0.000488281 3.99995 1.3439 3.99995 2.9994C3.99995 4.65674 5.34304 5.99892 6.99974 5.99892H48.9999C50.6569 5.99892 52 4.65674 52 2.9994C52 1.3439 50.6569 0.000488281 48.9999 0.000488281ZM6.99974 17.0006H58.9998C60.6568 17.0006 61.9999 18.344 61.9999 20.0001C61.9999 21.6575 60.6568 23.0002 58.9998 23.0002H6.99974C5.34304 23.0002 3.99995 21.6575 3.99995 20.0001C3.99995 18.344 5.34304 17.0006 6.99974 17.0006ZM6.99974 34.9995H35C36.6567 34.9995 38.0001 36.3423 38.0001 38.0009C38.0001 39.6564 36.6567 41.001 35 41.001H6.99974C5.34304 41.001 3.99995 39.6564 3.99995 38.0009C3.99995 36.3423 5.34304 34.9995 6.99974 34.9995Z" fill="#AAAAAA"/>
</g>
<defs>
<filter id="filter0_d" x="-5.34058e-05" y="0.000488281" width="66" height="49.0005" filterUnits="userSpaceOnUse" color-interpolation-filters="sRGB">
<feFlood flood-opacity="0" result="BackgroundImageFix"/>
<feColorMatrix in="SourceAlpha" type="matrix" values="0 0 0 0 0 0 0 0 0 0 0 0 0 0 0 0 0 0 127 0"/>
<feOffset dy="4"/>
<feGaussianBlur stdDeviation="2"/>
<feColorMatrix type="matrix" values="0 0 0 0 0 0 0 0 0 0 0 0 0 0 0 0 0 0 0.25 0"/>
<feBlend mode="normal" in2="BackgroundImageFix" result="effect1_dropShadow"/>
<feBlend mode="normal" in="SourceGraphic" in2="effect1_dropShadow" result="shape"/>
</filter>
</defs>
</svg>
