<svg width="90" height="90" viewBox="0 0 90 90" fill="none" xmlns="http://www.w3.org/2000/svg">
<path fill-rule="evenodd" clip-rule="evenodd" d="M45.0001 -5.60284e-05C69.8528 -5.60284e-05 90 20.1471 90 44.9993C90 69.8529 69.8528 90.0001 45.0001 90.0001C20.147 90.0001 0.000131965 69.8529 0.000131965 44.9993C0.000131965 20.1471 20.147 -5.60284e-05 45.0001 -5.60284e-05ZM45.0001 7.49964C65.7106 7.49964 82.5 24.2886 82.5 44.9993C82.5 65.7102 65.7106 82.5004 45.0001 82.5004C24.2892 82.5004 7.50006 65.7102 7.50006 44.9993C7.50006 24.2886 24.2892 7.49964 45.0001 7.49964ZM38.5816 39.4234C38.2302 39.5631 37.9108 39.8699 37.7616 40.2623C37.3533 41.3346 31.9101 56.3358 31.5825 57.2594C31.2891 58.0881 31.9162 58.7356 32.7542 58.4308C34.0301 57.9681 48.9686 52.5395 49.7136 52.2653C50.1632 52.1005 50.4583 51.7778 50.5865 51.4314C50.7719 51.355 50.9455 51.2415 51.0962 51.0908C51.2468 50.9403 51.3602 50.7667 51.4366 50.5814C51.7832 50.4533 52.1063 50.1583 52.2715 49.7088C52.5453 48.9634 57.9742 34.0252 58.4367 32.7492C58.7401 31.9107 58.0935 31.2828 57.265 31.5777C56.3409 31.9046 41.3395 37.3485 40.2672 37.7561C39.8748 37.9053 39.5681 38.2247 39.4285 38.576C39.244 38.6524 39.0712 38.7657 38.9213 38.9159C38.7712 39.0659 38.658 39.2388 38.5816 39.4234Z" fill="#666666"/>
</svg>
