<svg width="39" height="50" viewBox="0 0 39 50" fill="none" xmlns="http://www.w3.org/2000/svg">
<path fill-rule="evenodd" clip-rule="evenodd" d="M0.989685 19.6782C0.989685 5.88759 11.2252 0.995117 19.9902 0.995117C28.7553 0.995117 38.9907 5.88759 38.9907 19.6782C38.9907 33.0442 22.439 48.6495 21.7345 49.3068C21.251 49.7585 20.6207 49.9843 19.9902 49.9843C19.3597 49.9843 18.7294 49.7585 18.246 49.3068C17.5414 48.6495 0.989685 33.0442 0.989685 19.6782ZM5.95265 19.6782C5.95265 28.7894 15.8816 39.9906 19.989 44.2337C24.096 39.9863 34.0278 28.7741 34.0278 19.6782C34.0278 6.69239 23.2835 5.6826 19.9902 5.6826C16.6969 5.6826 5.95265 6.69239 5.95265 19.6782ZM25.9374 19.2186C25.9374 16.0771 23.2792 13.5311 20.0001 13.5311C16.7209 13.5311 14.0625 16.0771 14.0625 19.2186C14.0625 22.3601 16.7209 24.9062 20.0001 24.9062C23.2792 24.9062 25.9374 22.3601 25.9374 19.2186Z" fill="#AAAAAA"/>
</svg>
