<svg width="44" height="39" viewBox="0 0 44 39" fill="none" xmlns="http://www.w3.org/2000/svg">
<path fill-rule="evenodd" clip-rule="evenodd" d="M16.1929 1.84071C14.5321 0.679088 12.5254 0 10.3642 0C4.6403 0 0.000183105 4.76322 0.000183105 10.6384C0.000183105 12.8856 0.67902 14.9701 1.83769 16.6875L1.7256 16.841L21.5685 39H22.4312L42.2744 16.841L42.0923 16.79C43.2936 15.0533 43.9999 12.9305 43.9999 10.6384C43.9999 4.76322 39.3597 0 33.6358 0C31.4824 0 29.4823 0.674238 27.825 1.82826L27.6079 1.77244L22.4312 7.09103H21.5685L16.3922 1.77244L16.1929 1.84071ZM11.8926 5.56421C11.4096 5.41112 10.8963 5.32871 10.3642 5.32871C7.50688 5.32871 5.19069 7.70528 5.19069 10.6384C5.19069 12.579 6.205 14.2768 7.71921 15.2032L22.4312 31.909L36.4713 15.0808C37.8795 14.1319 38.8094 12.4965 38.8094 10.6384C38.8094 7.70528 36.4931 5.32871 33.6358 5.32871C33.3624 5.32871 33.094 5.35047 32.8321 5.39239L32.7842 5.31859L32.6629 5.42244C30.8951 5.76764 29.4461 7.03596 28.8102 8.72059L22.4312 14.1814H21.5685L14.7394 7.80359C14.2413 6.9953 13.5364 6.33467 12.701 5.89989L12.0786 5.31859L11.8926 5.56421Z" fill="#AAAAAA"/>
</svg>
