<svg width="9" height="47" viewBox="0 0 9 47" fill="none" xmlns="http://www.w3.org/2000/svg">
<path fill-rule="evenodd" clip-rule="evenodd" d="M4.00008 -0.000488281H5.00002C7.20924 -0.000488281 9.00005 1.79033 9.00005 3.9997V5.00021C9.00005 7.20831 7.20924 9.00035 5.00002 9.00035H4.00008C1.79087 9.00035 6.10352e-05 7.20831 6.10352e-05 5.00021V3.9997C6.10352e-05 1.79033 1.79087 -0.000488281 4.00008 -0.000488281ZM4.00008 19.0005H5.00002C7.20924 19.0005 9.00005 20.7913 9.00005 22.9994V23.9993C9.00005 26.2093 7.20924 28.0001 5.00002 28.0001H4.00008C1.79087 28.0001 6.10352e-05 26.2093 6.10352e-05 23.9993V22.9994C6.10352e-05 20.7913 1.79087 19.0005 4.00008 19.0005ZM5.00002 37.9996H4.00008C1.79087 37.9996 6.10352e-05 39.7904 6.10352e-05 42.0004V43.0003C6.10352e-05 45.2084 1.79087 47.0005 4.00008 47.0005H5.00002C7.20924 47.0005 9.00005 45.2084 9.00005 43.0003V42.0004C9.00005 39.7904 7.20924 37.9996 5.00002 37.9996Z" fill="#AAAAAA"/>
</svg>
