<svg width="80" height="68" viewBox="0 0 80 68" fill="none" xmlns="http://www.w3.org/2000/svg">
<path fill-rule="evenodd" clip-rule="evenodd" d="M3.50007 -0.000200033H76.4999C78.4329 -0.000200033 80.0001 1.56717 80.0001 3.50058V4.37574C80.0001 6.30794 78.4329 7.8753 76.4999 7.8753H3.50007C1.56714 7.8753 -0.000128031 6.30794 -0.000128031 4.37574V3.50058C-0.000128031 1.56717 1.56714 -0.000200033 3.50007 -0.000200033ZM40.5 27.5946H3.50007C1.56714 27.5946 -0.000128031 29.1607 -0.000128031 31.0929V31.9693C-0.000128031 33.9014 1.56714 35.4689 3.50007 35.4689H40.5C42.4329 35.4689 43.9999 33.9014 43.9999 31.9693V31.0929C43.9999 29.1607 42.4329 27.5946 40.5 27.5946ZM40.5 55.1869H3.50007C1.56714 55.1869 -0.000128031 56.7543 -0.000128031 58.6876V59.5629C-0.000128031 61.4962 1.56714 63.0624 3.50007 63.0624H40.5C42.4329 63.0624 43.9999 61.4962 43.9999 59.5629V58.6876C43.9999 56.7543 42.4329 55.1869 40.5 55.1869ZM71.0001 24.6257H56.9999C54.2384 24.6257 51.9999 26.8639 51.9999 29.6246V51.4671V52.7186V59.2814V60.7373V64.7185H52.0001C52 64.7342 51.9999 64.7499 51.9999 64.7657C51.9999 66.5528 53.0563 68.0002 54.3593 68.0002C55.0666 68.0002 55.7012 67.5737 56.1337 66.8979C56.2545 66.9113 56.3767 66.9181 56.5001 66.9181L64 58.3342L71.4999 66.9181C71.6406 66.9181 71.7798 66.9092 71.9171 66.8919C72.344 67.5712 72.9719 68.0002 73.6719 68.0002C74.9576 68.0002 76.0001 66.5528 76.0001 64.7657L75.9999 64.7185H76.0001V60.7373V59.2814V52.7186V51.4671V29.6246C76.0001 26.8639 73.7613 24.6257 71.0001 24.6257Z" fill="#666666"/>
</svg>
