<svg width="52" height="53" viewBox="0 0 52 53" fill="none" xmlns="http://www.w3.org/2000/svg">
<path fill-rule="evenodd" clip-rule="evenodd" d="M20.9998 -0.000463963C32.5979 -0.000463963 41.9999 9.40261 41.9999 20.9992C41.9999 25.9728 40.2712 30.5423 37.3818 34.1396L51.6067 48.3644L47.364 52.6076L32.9953 38.2384C29.5946 40.6088 25.4596 41.9988 20.9998 41.9988C9.40183 41.9988 -0.000254989 32.5982 -0.000254989 20.9992C-0.000254989 9.40261 9.40183 -0.000463963 20.9998 -0.000463963ZM20.9998 6.00038C29.2842 6.00038 36 12.7161 36 20.9992C36 29.2847 29.2842 35.9998 20.9998 35.9998C12.7158 35.9998 5.99997 29.2847 5.99997 20.9992C5.99997 12.7161 12.7158 6.00038 20.9998 6.00038Z" fill="#AAAAAA"/>
</svg>
