<svg width="179" height="142" viewBox="0 0 179 142" fill="none" xmlns="http://www.w3.org/2000/svg">
<g filter="url(#filter0_d)">
<path fill-rule="evenodd" clip-rule="evenodd" d="M134.545 70.6257C130.184 90.2966 112.743 105 91.8906 105C77.7752 105 65.2227 98.2625 57.2328 87.8074C54.5141 88.0615 51.973 88.1591 49.7894 88.0507C39.0362 87.5152 27.6675 81.8631 27.9925 72.4485C28.3036 63.4275 37.9837 53.347 38.7942 52.5183C39.3154 51.5325 40.379 50.8833 41.5746 50.9402C43.2209 51.0204 44.494 52.4079 44.4184 54.0408C44.3683 55.1302 43.7309 56.0536 42.8235 56.5244C35.1301 64.8778 34.1843 67.7331 34.0005 71.4148C33.8127 75.1732 36.2861 81.5675 50.7242 82.1416C51.6493 82.1784 52.596 82.1792 53.5576 82.1484C50.1345 75.8725 48.1875 68.6648 48.1875 60.9994C48.1875 36.6998 67.7542 17 91.8906 17C110.15 17 125.795 28.2746 132.33 44.286C130.068 44.5617 127.307 45.3699 125.2 46.0728C119.519 33.2503 106.742 24.3124 91.8906 24.3124C71.7582 24.3124 55.4375 40.7378 55.4375 60.9994C55.4375 68.5069 57.6779 75.4876 61.5226 81.3013C73.1904 79.3283 84.4913 74.6695 84.842 74.5243C85.4811 73.7367 86.4706 73.2537 87.5586 73.3059C89.3814 73.3941 90.7908 74.951 90.7062 76.7853C90.6274 78.4906 89.2833 79.8343 87.6282 79.943C87.3117 80.1368 86.9565 80.3412 86.5586 80.5565C82.6516 82.6711 74.238 85.0989 65.7933 86.6149C72.4138 93.4461 81.6601 97.6876 91.8906 97.6876C107.148 97.6876 120.216 88.2542 125.65 74.8663L134.545 70.6257ZM101.713 74.7447C99.9485 74.7752 98.4148 74.4499 97.2459 73.8448C96.7828 73.7351 96.399 73.527 96.1152 73.2031C95.4203 72.4074 94.479 71.5081 93.4792 70.553L93.4792 70.5529L93.4791 70.5529L93.4791 70.5528L93.479 70.5528L93.479 70.5527C92.4271 69.5478 91.3105 68.481 90.348 67.4079C89.6152 66.592 88.9743 65.7769 88.5386 65.008C88.1789 64.9953 87.8684 64.832 87.6529 64.5717C87.5394 64.4358 87.4525 64.2706 87.3985 64.0883C87.3714 63.9977 87.3528 63.9004 87.3433 63.8012C87.3387 63.7516 87.3359 63.7009 87.3359 63.6488C87.3359 63.5975 87.3383 63.5448 87.3433 63.4916C87.4002 62.864 87.8002 62.3245 88.3225 62.089C88.3588 62.0445 88.398 62.001 88.4401 61.9585C90.7923 59.6002 94.8639 60.7092 98.9183 61.8134C99.2128 61.8936 99.5073 61.9738 99.801 62.0527C101.511 62.5114 103.36 62.4687 104.975 62.2476C106.52 61.6828 108.056 61.1104 109.581 60.5346C106.879 57.8068 104.206 54.9886 101.497 52.029C101.443 52.0319 101.388 52.0323 101.333 52.0302C100.288 51.9923 99.5678 51.0388 99.7328 49.9034C99.8977 48.77 100.882 47.9046 101.922 47.964C103.854 47.7296 105.755 47.4921 107.628 47.2559C107.628 47.2559 107.699 47.2571 107.827 47.2626C107.956 47.2681 108.143 47.2785 108.374 47.2981C108.838 47.3378 109.48 47.4137 110.197 47.5582C111.634 47.847 113.369 48.4059 114.633 49.5001C116.79 51.5139 122.62 54.7166 129.614 52.8313C133.203 51.4839 136.636 50.2497 139.867 49.2063L139.953 49.3776C140.2 49.3429 140.582 49.2955 141.055 49.2584C141.48 49.2247 141.978 49.2003 142.518 49.199C142.788 49.199 143.068 49.2045 143.356 49.2186C143.644 49.2315 143.938 49.2517 144.238 49.2811C146.589 49.5301 149.399 50.2823 150.809 52.1111C151.145 52.5761 151.401 53.0125 151.588 53.4226C151.681 53.6288 151.757 53.8271 151.817 54.0193C151.877 54.2115 151.921 54.3982 151.951 54.578C151.965 54.668 151.977 54.7562 151.984 54.8425C151.991 54.9287 151.996 55.0138 151.996 55.0983C151.998 55.2654 151.986 55.4264 151.962 55.5818C151.913 55.8921 151.816 56.1803 151.678 56.4466C151.121 57.5139 149.935 58.2312 148.399 58.8108C147.006 59.3703 144.164 60.4011 141.589 61.3216C131.138 65.3561 119.443 69.5602 107.926 73.1251C106.224 74.1143 103.982 74.7112 101.713 74.7447Z" fill="#E9486D"/>
<path fill-rule="evenodd" clip-rule="evenodd" d="M134.545 70.6257C130.184 90.2966 112.743 105 91.8906 105C77.7752 105 65.2227 98.2625 57.2328 87.8074C54.5141 88.0615 51.973 88.1591 49.7894 88.0507C39.0362 87.5152 27.6675 81.8631 27.9925 72.4485C28.3036 63.4275 37.9837 53.347 38.7942 52.5183C39.3154 51.5325 40.379 50.8833 41.5746 50.9402C43.2209 51.0204 44.494 52.4079 44.4184 54.0408C44.3683 55.1302 43.7309 56.0536 42.8235 56.5244C35.1301 64.8778 34.1843 67.7331 34.0005 71.4148C33.8127 75.1732 36.2861 81.5675 50.7242 82.1416C51.6493 82.1784 52.596 82.1792 53.5576 82.1484C50.1345 75.8725 48.1875 68.6648 48.1875 60.9994C48.1875 36.6998 67.7542 17 91.8906 17C110.15 17 125.795 28.2746 132.33 44.286C130.068 44.5617 127.307 45.3699 125.2 46.0728C119.519 33.2503 106.742 24.3124 91.8906 24.3124C71.7582 24.3124 55.4375 40.7378 55.4375 60.9994C55.4375 68.5069 57.6779 75.4876 61.5226 81.3013C73.1904 79.3283 84.4913 74.6695 84.842 74.5243C85.4811 73.7367 86.4706 73.2537 87.5586 73.3059C89.3814 73.3941 90.7908 74.951 90.7062 76.7853C90.6274 78.4906 89.2833 79.8343 87.6282 79.943C87.3117 80.1368 86.9565 80.3412 86.5586 80.5565C82.6516 82.6711 74.238 85.0989 65.7933 86.6149C72.4138 93.4461 81.6601 97.6876 91.8906 97.6876C107.148 97.6876 120.216 88.2542 125.65 74.8663L134.545 70.6257ZM101.713 74.7447C99.9485 74.7752 98.4148 74.4499 97.2459 73.8448C96.7828 73.7351 96.399 73.527 96.1152 73.2031C95.4203 72.4074 94.479 71.5081 93.4792 70.553L93.4792 70.5529L93.4791 70.5529L93.4791 70.5528L93.479 70.5528L93.479 70.5527C92.4271 69.5478 91.3105 68.481 90.348 67.4079C89.6152 66.592 88.9743 65.7769 88.5386 65.008C88.1789 64.9953 87.8684 64.832 87.6529 64.5717C87.5394 64.4358 87.4525 64.2706 87.3985 64.0883C87.3714 63.9977 87.3528 63.9004 87.3433 63.8012C87.3387 63.7516 87.3359 63.7009 87.3359 63.6488C87.3359 63.5975 87.3383 63.5448 87.3433 63.4916C87.4002 62.864 87.8002 62.3245 88.3225 62.089C88.3588 62.0445 88.398 62.001 88.4401 61.9585C90.7923 59.6002 94.8639 60.7092 98.9183 61.8134C99.2128 61.8936 99.5073 61.9738 99.801 62.0527C101.511 62.5114 103.36 62.4687 104.975 62.2476C106.52 61.6828 108.056 61.1104 109.581 60.5346C106.879 57.8068 104.206 54.9886 101.497 52.029C101.443 52.0319 101.388 52.0323 101.333 52.0302C100.288 51.9923 99.5678 51.0388 99.7328 49.9034C99.8977 48.77 100.882 47.9046 101.922 47.964C103.854 47.7296 105.755 47.4921 107.628 47.2559C107.628 47.2559 107.699 47.2571 107.827 47.2626C107.956 47.2681 108.143 47.2785 108.374 47.2981C108.838 47.3378 109.48 47.4137 110.197 47.5582C111.634 47.847 113.369 48.4059 114.633 49.5001C116.79 51.5139 122.62 54.7166 129.614 52.8313C133.203 51.4839 136.636 50.2497 139.867 49.2063L139.953 49.3776C140.2 49.3429 140.582 49.2955 141.055 49.2584C141.48 49.2247 141.978 49.2003 142.518 49.199C142.788 49.199 143.068 49.2045 143.356 49.2186C143.644 49.2315 143.938 49.2517 144.238 49.2811C146.589 49.5301 149.399 50.2823 150.809 52.1111C151.145 52.5761 151.401 53.0125 151.588 53.4226C151.681 53.6288 151.757 53.8271 151.817 54.0193C151.877 54.2115 151.921 54.3982 151.951 54.578C151.965 54.668 151.977 54.7562 151.984 54.8425C151.991 54.9287 151.996 55.0138 151.996 55.0983C151.998 55.2654 151.986 55.4264 151.962 55.5818C151.913 55.8921 151.816 56.1803 151.678 56.4466C151.121 57.5139 149.935 58.2312 148.399 58.8108C147.006 59.3703 144.164 60.4011 141.589 61.3216C131.138 65.3561 119.443 69.5602 107.926 73.1251C106.224 74.1143 103.982 74.7112 101.713 74.7447Z" fill="url(#paint0_linear)" fill-opacity="0.75"/>
</g>
<defs>
<filter id="filter0_d" x="0.985695" y="0" width="178.011" height="142" filterUnits="userSpaceOnUse" color-interpolation-filters="sRGB">
<feFlood flood-opacity="0" result="BackgroundImageFix"/>
<feColorMatrix in="SourceAlpha" type="matrix" values="0 0 0 0 0 0 0 0 0 0 0 0 0 0 0 0 0 0 127 0"/>
<feOffset dy="10"/>
<feGaussianBlur stdDeviation="13.5"/>
<feColorMatrix type="matrix" values="0 0 0 0 0 0 0 0 0 0 0 0 0 0 0 0 0 0 0.1 0"/>
<feBlend mode="normal" in2="BackgroundImageFix" result="effect1_dropShadow"/>
<feBlend mode="normal" in="SourceGraphic" in2="effect1_dropShadow" result="shape"/>
</filter>
<linearGradient id="paint0_linear" x1="144.165" y1="91.3138" x2="144.165" y2="17" gradientUnits="userSpaceOnUse">
<stop stop-color="#D23078"/>
<stop offset="0.725626" stop-color="#FE6161"/>
<stop offset="1" stop-color="#FF7955"/>
</linearGradient>
</defs>
</svg>
